<svg xmlns="http://www.w3.org/2000/svg" fill="none" viewBox="0 0 95 32"><defs/><path fill="#242020" d="M2.22 24V.56h6.22l5.15 11.05c.24.6.48 1.21.7 1.83.25.6.48 1.21.7 1.83a32.02 32.02 0 011.45-3.66L21.58.56h6.1V24h-4.79c0-2.85.03-5.64.08-8.36.05-2.72.16-5.44.33-8.17a54.03 54.03 0 01-1.78 4.23l-3.96 8.47h-5.25l-3.94-8.44A274.13 274.13 0 016.55 7.1a200.34 200.34 0 01.4 10.6C6.98 19.55 7 21.66 7 24H2.22zm28.44-7.81a7.83 7.83 0 014.05-7.06A8.62 8.62 0 0139 8.05c1.6 0 3.03.36 4.28 1.06a7.97 7.97 0 014.05 7.06 7.87 7.87 0 01-4.05 7.08A8.63 8.63 0 0139 24.32c-1.6 0-3.04-.35-4.3-1.04a7.99 7.99 0 01-2.97-2.9 8.14 8.14 0 01-1.07-4.18zm4.37 0c0 1.2.38 2.21 1.13 3.01.75.8 1.7 1.2 2.84 1.2 1.15 0 2.1-.4 2.84-1.2.75-.8 1.13-1.8 1.13-3.01 0-1.21-.38-2.22-1.13-3.02-.75-.8-1.7-1.2-2.84-1.2-1.15 0-2.1.4-2.84 1.2-.75.8-1.13 1.8-1.13 3.02zM50.31 24V8.37h3.94l.19 1.91a6.33 6.33 0 012.2-1.64 6.9 6.9 0 012.84-.58c1.83 0 3.28.6 4.36 1.81 1.09 1.2 1.63 2.87 1.63 5.02V24h-4.52v-8.23c0-2.54-.94-3.8-2.84-3.8a3 3 0 00-2.4 1.08c-.6.72-.9 1.73-.9 3.03V24h-4.5zm18.4-4.3c0-1.04.3-1.97.9-2.8a6.18 6.18 0 012.48-1.95 8.62 8.62 0 013.61-.72c.43 0 .88.03 1.35.08.48.05.96.12 1.43.2-.34-1.7-1.57-2.54-3.7-2.54-1.26 0-2.52.47-3.8 1.42l-1.54-3.8c1.08-.52 2.15-.9 3.2-1.15 1.05-.25 2.05-.38 3-.38 1.51 0 2.82.29 3.92.86a6.16 6.16 0 012.6 2.4c.61 1.04.92 2.25.92 3.65V24H79.3l-.3-1.67c-.58.61-1.3 1.1-2.14 1.45-.83.36-1.75.53-2.75.53a5.82 5.82 0 01-3.9-1.28c-1-.85-1.5-1.96-1.5-3.33zm4.5-1.03c0 .52.2.94.6 1.27.4.31.94.47 1.6.47.9 0 1.64-.27 2.25-.82.61-.54.92-1.2.92-2v-.3a8.45 8.45 0 00-2.55-.41c-.88 0-1.58.15-2.08.46-.49.32-.73.76-.73 1.33z"/><path fill="#5494F5" d="M88 17h7v7h-7z"/></svg>
